<svg width="64" height="64" viewBox="0 0 64 64" fill="none" xmlns="http://www.w3.org/2000/svg">
<path d="M44.5309 29.9809C43.2642 30.0142 42.1309 30.2642 41.1309 30.7309L36.4809 13.4309C35.9809 11.4976 34.7642 10.7809 32.8309 11.2809L25.0809 13.3309L24.6809 13.4309L24.1309 13.6309L15.4309 15.9309C13.4642 16.4309 12.7476 17.6642 13.2809 19.6309L20.5309 46.6809C21.0309 48.6142 22.2642 49.3142 24.2309 48.7809L28.7309 47.5809C28.9309 48.7142 29.3642 49.7309 30.0309 50.6309C30.7976 51.6642 31.6976 52.3642 32.7309 52.7309L25.7809 54.5809C19.9809 56.1142 16.2976 53.9976 14.7309 48.2309L7.48091 21.1809C5.94758 15.3809 8.08091 11.6976 13.8809 10.1309L22.5809 7.83091L22.9309 7.78091L23.4809 7.53091L31.2309 5.48091H31.2809C37.0476 3.94758 40.7142 6.08091 42.2809 11.8809L47.2809 30.4309L44.5309 29.9809ZM34.5309 41.9809H40.5309V35.9809C40.5309 35.1476 40.9142 34.4476 41.6809 33.8809L41.9309 33.7309C42.6642 33.2309 43.5309 32.9809 44.5309 32.9809C45.6642 32.9809 46.5976 33.2809 47.3309 33.8809C48.1309 34.4476 48.5309 35.1476 48.5309 35.9809V41.9809H54.5309C55.3642 41.9809 56.0809 42.3809 56.6809 43.1809C57.2476 43.9142 57.5309 44.8476 57.5309 45.9809C57.5309 47.0809 57.2476 48.0309 56.6809 48.8309C56.0809 49.5976 55.3642 49.9809 54.5309 49.9809H48.5309V55.9809C48.5309 56.8142 48.1309 57.5309 47.3309 58.1309C46.5976 58.6976 45.6642 58.9809 44.5309 58.9809C43.4309 58.9809 42.4809 58.6976 41.6809 58.1309C40.9142 57.5309 40.5309 56.8142 40.5309 55.9809V49.9809H34.5309C33.6976 49.9809 32.9976 49.5976 32.4309 48.8309C31.9976 48.2309 31.7142 47.5642 31.5809 46.8309L31.5309 45.9809C31.5309 44.8476 31.8309 43.9142 32.4309 43.1809C32.9976 42.3809 33.6976 41.9809 34.5309 41.9809Z" fill="white"/>
</svg>
