<svg width="64" height="64" viewBox="0 0 64 64" fill="none" xmlns="http://www.w3.org/2000/svg">
<path d="M64 12V4C64 2.93333 63.6 2 62.8 1.2C62 0.400001 61.0667 0 60 0H52C50.8667 0 49.9 0.400001 49.1 1.2C48.3666 2 48 2.96667 48 4.1V12C48 13.1333 48.3666 14.1 49.1 14.9C49.9 15.6333 50.8667 16 52 16H60C61.0667 16 62 15.6333 62.8 14.9C63.6 14.1 64 13.1333 64 12Z" fill="white"/>
<path d="M40 12V4C40 2.93333 39.6 2 38.8 1.2C38 0.400001 37.0667 0 36 0H28C26.8667 0 25.9 0.400001 25.1 1.2C24.3666 2 24 2.96667 24 4.1V12C24 13.1333 24.3666 14.1 25.1 14.9C25.9 15.6333 26.8667 16 28 16H36C37.0667 16 38 15.6333 38.8 14.9C39.6 14.1 40 13.1333 40 12Z" fill="white"/>
<path d="M60 24H52C50.8667 24 49.9 24.4 49.1 25.2C48.3666 26 48 26.9667 48 28.1V36C48 37.1333 48.3666 38.1 49.1 38.9C49.9 39.6333 50.8667 40 52 40H60C61.0667 40 62 39.6333 62.8 38.9C63.6 38.1 64 37.1333 64 36V28C64 26.9333 63.6 26 62.8 25.2C62 24.4 61.0667 24 60 24Z" fill="white"/>
<path d="M40 28C40 26.9333 39.6 26 38.8 25.2C38 24.4 37.0667 24 36 24H28C26.8667 24 25.9 24.4 25.1 25.2C24.3666 26 24 26.9667 24 28.1V36C24 37.1333 24.3666 38.1 25.1 38.9C25.9 39.6333 26.8667 40 28 40H36C37.0667 40 38 39.6333 38.8 38.9C39.6 38.1 40 37.1333 40 36V28Z" fill="white"/>
<path d="M64 60V52C64 50.9333 63.6 50 62.8 49.2C62 48.4 61.0667 48 60 48H52C50.8667 48 49.9 48.4 49.1 49.2C48.3666 50 48 50.9667 48 52.1V60C48 61.1333 48.3666 62.1 49.1 62.9C49.9 63.6333 50.8667 64 52 64H60C61.0667 64 62 63.6333 62.8 62.9C63.6 62.1 64 61.1333 64 60Z" fill="white"/>
<path d="M40 52C40 50.9333 39.6 50 38.8 49.2C38 48.4 37.0667 48 36 48H28C26.8667 48 25.9 48.4 25.1 49.2C24.3666 50 24 50.9667 24 52.1V60C24 61.1333 24.3666 62.1 25.1 62.9C25.9 63.6333 26.8667 64 28 64H36C37.0667 64 38 63.6333 38.8 62.9C39.6 62.1 40 61.1333 40 60V52Z" fill="white"/>
<path d="M16 12V4C16 2.93333 15.6 2 14.8 1.2C14 0.400001 13.0667 0 12 0H4C2.86667 0 1.89998 0.400001 1.09998 1.2C0.366642 2 0 2.96667 0 4.1V12C0 13.1333 0.366642 14.1 1.09998 14.9C1.89998 15.6333 2.86667 16 4 16H12C13.0667 16 14 15.6333 14.8 14.9C15.6 14.1 16 13.1333 16 12Z" fill="white"/>
<path d="M14.8 25.2C14 24.4 13.0667 24 12 24H4C2.86667 24 1.89998 24.4 1.09998 25.2C0.366642 26 0 26.9667 0 28.1V36C0 37.1333 0.366642 38.1 1.09998 38.9C1.89998 39.6333 2.86667 40 4 40H12C13.0667 40 14 39.6333 14.8 38.9C15.6 38.1 16 37.1333 16 36V28C16 26.9333 15.6 26 14.8 25.2Z" fill="white"/>
<path d="M16 60V52C16 50.9333 15.6 50 14.8 49.2C14 48.4 13.0667 48 12 48H4C2.86667 48 1.89998 48.4 1.09998 49.2C0.366642 50 0 50.9667 0 52.1V60C0 61.1333 0.366642 62.1 1.09998 62.9C1.89998 63.6333 2.86667 64 4 64H12C13.0667 64 14 63.6333 14.8 62.9C15.6 62.1 16 61.1333 16 60Z" fill="white"/>
</svg>
